{"title":"Peaky.Blinders.Season.1.Complete.720p.HDTV.x264-SCENE","uid":9142178,"size":6001854110,"categoryP":"video","categoryS":"hd___tv_shows","magnet":"?xt=urn:btih:3be8c669363e6231fcd13124686d9868be3939ab&amp;dn=Peaky.Blinders.Season.1.Complete.720p.HDTV.x264-SCENE&amp;tr=udp%3A%2F%2Ftracker.openbittorrent.com%3A80&amp;tr=udp%3A%2F%2Fopen.demonii.com%3A1337&amp;tr=udp%3A%2F%2Ftracker.coppersurfer.tk%3A6969&amp;tr=udp%3A%2F%2Fexodus.desync.com%3A6969","seeders":57,"leechers":15,"uploader":"th3d4m4g3r","files":-1,"time":1383527585,"description":"My connection is slow. Please be patient. Please seed to at least 1.5 ratio so others can enjoy the show too. Thank You.\n\n-------------------------------------------\n\nPeaky.Blinders.Season.1.Complete.720p.HDTV.x264-SCENE\nAired: 2013-09-12 - 2013-10-17\n\n-------------------------------------------\n\nFiles:\n\nPeaky.Blinders.S01E01.REPACK.720p.HDTV.x264-TLA.mkv\nPeaky.Blinders.S01E02.720p.HDTV.x264-TLA.mkv\nPeaky_Blinders.1x03.720p_HDTV_x264-FoV.mkv\nPeaky_Blinders.1x04.720p_HDTV_x264-FoV.mkv\nPeaky_Blinders.1x05.720p_HDTV_x264-FoV.mkv\nPeaky.Blinders.S01E06.720p.HDTV.x264-RiVER.mkv\n\n-------------------------------------------\n\nMediaInfo:\n\nGeneral\nComplete name                            : Peaky_Blinders.1x03.720p_HDTV_x264-FoV.mkv\nFormat                                   : Matroska\nFile size                                : 1.08 GiB\nDuration                                 : 56mn 8s\nOverall bit rate                         : 2 747 Kbps\n\nVideo\nID                                       : 1\nFormat                                   : AVC\nFormat profile                           : &lt;a class=&quot;__cf_email__&quot; href=&quot;/cdn-cgi/l/email-protection&quot; data-cfemail=&quot;367e5f515e767a021807&quot;&gt;[email&amp;#160;protected]&lt;/a&gt;&lt;script cf-hash='f9e31' type=&quot;text/javascript&quot;&gt;\n/* &lt;![CDATA[ */!function(){try{var t=&quot;currentScript&quot;in document?document.currentScript:function(){for(var t=document.getElementsByTagName(&quot;script&quot;),e=t.length;e--;)if(t[e].getAttribute(&quot;cf-hash&quot;))return t[e]}();if(t&amp;&amp;t.previousSibling){var e,r,n,i,c=t.previousSibling,a=c.getAttribute(&quot;data-cfemail&quot;);if(a){for(e=&quot;&quot;,r=parseInt(a.substr(0,2),16),n=2;a.length-n;n+=2)i=parseInt(a.substr(n,2),16)^r,e+=String.fromCharCode(i);e=document.createTextNode(e),c.parentNode.replaceChild(e,c)}}}catch(u){}}();/* ]]&gt; */&lt;/script&gt;\nFormat settings, CABAC                   : Yes\nFormat settings, ReFrames                : 5 frames\nBit rate                                 : 2 500 Kbps\nWidth                                    : 1 280 pixels\nHeight                                   : 692 pixels\nDisplay aspect ratio                     : 1.85:1\nFrame rate mode                          : Constant\nFrame rate                               : 25.000 fps\nColor space                              : YUV\nChroma subsampling                       : 4:2:0\nBit depth                                : 8 bits\nScan type                                : Progressive\nBits/(Pixel*Frame)                       : 0.113\nStream size                              : 1 004 MiB (91%)\nWriting library                          : x264 core 138 r2358 9e941d1\nEncoding settings                        : cabac=1 // deblock=1:0:0 / analyse=0x3:0x113 / me=umh / subme=8 / psy=1 / psy_rd=1.00:0.00 // me_range=16 / chroma_me=1 / trellis=1 / 8x8dct=1 / cqm=0 / deadzone=21,11 / fast_pskip=1 / chroma_qp_offset=-2 / threads=18 / lookahead_threads=3 / sliced_threads=0 / nr=0 / decimate=1 / interlaced=0 / bluray_compat=0 / constrained_intra=0 / bframes=3 / b_pyramid=2 / b_adapt=2 / b_bias=0 / direct=3 / weightb=1 / open_gop=0 / weightp=2 / keyint=250 / keyint_min=25 / scenecut=40 / intra_refresh=0 / rc_lookahead=50 / rc=crf / mbtree=1 / crf=18.0 / qcomp=0.60 / qpmin=0 / qpmax=69 / qpstep=4 / ip_ratio=1.40 / aq=1:1.00\n\nAudio\nFormat                                   : AC-3\nBit rate mode                            : Constant\nBit rate                                 : 192 Kbps\nChannel(s)                               : 2 channels\nChannel positions                        : Front: L R\nSampling rate                            : 48.0 KHz\nBit depth                                : 16 bits\nCompression mode                         : Lossy\nStream size                              : 77.1 MiB (7%)","torrent":{"xt":"urn:btih:3be8c669363e6231fcd13124686d9868be3939ab","amp;dn":"Peaky.Blinders.Season.1.Complete.720p.HDTV.x264-SCENE","amp;tr":["udp%3A%2F%2Ftracker.openbittorrent.com%3A80","udp%3A%2F%2Fopen.demonii.com%3A1337","udp%3A%2F%2Ftracker.coppersurfer.tk%3A6969","udp%3A%2F%2Fexodus.desync.com%3A6969"],"infoHash":"3be8c669363e6231fcd13124686d9868be3939ab","infoHashBuffer":{"type":"Buffer","data":[59,232,198,105,54,62,98,49,252,209,49,36,104,109,152,104,190,57,57,171]},"announce":[],"urlList":[]}}